<svg xmlns="http://www.w3.org/2000/svg" xmlns:svg="http://www.w3.org/2000/svg" id="Layer_1" width="32" height="32" x="0" y="0" version="1.1" viewBox="0 0 32 32" xml:space="preserve"><metadata/><g transform="matrix(0.34767442,0,0,0.34767442,1.0499999,1.0499999)"><g transform="matrix(1.4623056,0,0,1.4623056,-19.890837,-17.206775)"><path style="fill:#fff" id="path8" d="m 66.647,66.62 c 0,1.447 -1.056,3.073 -2.498,3.073 H 22.201 c -1.442,0 -2.832,-1.626 -2.832,-3.073 V 37.662 c 0,-1.448 1.389,-2.759 2.832,-2.759 h 41.948 c 1.442,0 2.498,1.31 2.498,2.759 V 66.62 z"/><path style="opacity:.6;fill:#fff" id="path10" d="m 43.008,12.652 c -10.133,0 -18.286,7.898 -18.286,18.428 v 3.824 H 32.75 V 31.08 c 0,-7.898 4.477,-10.53 10.258,-10.53 5.782,0 10.259,2.632 10.259,10.53 v 3.824 h 8.028 V 31.08 c 0,-10.53 -8.152,-18.428 -18.287,-18.428 z"/></g><rect style="opacity:0;fill:#fff" width="86" height="86" x="0" y="0"/></g></svg>