<svg xmlns="http://www.w3.org/2000/svg" xmlns:svg="http://www.w3.org/2000/svg" xmlns:xlink="http://www.w3.org/1999/xlink" width="128" height="128" version="1.1"><defs><linearGradient id="SVGID_1_" x1="43" x2="43" y1=".3" y2="85.7" gradientUnits="userSpaceOnUse"><stop offset="0" style="stop-color:#f57c00;stop-opacity:1"/><stop offset=".995" style="stop-color:#e65100;stop-opacity:1"/></linearGradient><linearGradient id="linearGradient3015" x1="43" x2="43" y1=".3" y2="85.7" gradientTransform="matrix(1.4988285,0,0,1.4988285,-0.4496485,923.91253)" gradientUnits="userSpaceOnUse" xlink:href="#SVGID_1_"/></defs><metadata/><g transform="translate(0,-924.36218)"><path style="fill:url(#linearGradient3015)" d="M 63.999977,924.36218 C 28.653105,924.36218 0,953.01678 0,988.36215 c 0,0.61153 0,61.86725 0,61.86725 0,1.178 0.9547538,2.1328 2.132833,2.1328 H 125.86563 c 1.17807,0 2.13283,-0.9548 2.13283,-2.1328 0,0 0,-61.31418 0,-61.86725 9.1e-4,-35.34537 -28.651603,-63.99997 -63.998483,-63.99997 z"/><circle style="fill:#fff9c4" cx="30" cy="16" r="3" d="m 33,16 c 0,1.656854 -1.343146,3 -3,3 -1.656854,0 -3,-1.343146 -3,-3 0,-1.656854 1.343146,-3 3,-3 1.656854,0 3,1.343146 3,3 z" transform="matrix(4,0,0,4,-32,908.36218)"/><polygon style="fill:#942a09" points="17 17.9 8 31 26 31" transform="matrix(3.8461538,0,0,5.6274152,-16.76923,862.91231)"/><polygon style="fill:#bf360c" points="34 31 28 23.5 22 31" transform="matrix(3.8461538,0,0,3.8461538,-16.76923,918.13141)"/></g></svg>